<?xml version="1.0" standalone="no"?>
<!DOCTYPE svg PUBLIC "-//W3C//DTD SVG 20010904//EN"
 "http://www.w3.org/TR/2001/REC-SVG-20010904/DTD/svg10.dtd">
<svg version="1.0" xmlns="http://www.w3.org/2000/svg"
 width="32.000000pt" height="32.000000pt" viewBox="0 0 32.000000 32.000000"
 preserveAspectRatio="xMidYMid meet">
<metadata>
Created by potrace 1.16, written by Peter Selinger 2001-2019
</metadata>
<g transform="translate(0.000000,32.000000) scale(0.014414,-0.014414)"
fill="#FFFFFF" stroke="none">
<path d="M1000 2215 c-8 -2 -49 -9 -90 -15 -212 -35 -405 -135 -573 -299 -166
-162 -269 -350 -319 -586 -16 -77 -16 -333 0 -410 50 -236 153 -424 319 -586
164 -159 339 -252 568 -301 77 -16 333 -16 410 0 229 49 404 142 568 301 166
162 269 350 319 586 16 77 16 333 0 410 -50 236 -153 424 -319 586 -161 157
-331 249 -547 295 -65 14 -301 28 -336 19z m10 -1102 l0 -418 -410 410 c-226
225 -410 413 -410 417 0 5 184 8 410 8 l410 0 0 -417z m293 -405 c-148 -148
-269 -268 -270 -268 -2 0 -3 242 -3 537 l0 538 270 -270 270 -270 -267 -267z
m-585 259 l293 -293 -3 -117 -3 -117 -410 410 -410 410 120 0 120 0 293 -293z
m999 156 l-137 -138 -137 138 -138 137 275 0 275 0 -138 -137z m413 -130 c0
-2 -120 -3 -267 -3 l-268 0 135 135 135 135 132 -132 c73 -73 133 -134 133
-135z"/>
</g>
</svg>
